<svg width="64" height="64" viewBox="0 0 64 64" fill="none" xmlns="http://www.w3.org/2000/svg">
<path fill-rule="evenodd" clip-rule="evenodd" d="M42.578 42.9745L46.5179 39.2161C46.7626 38.9715 46.9062 38.6389 46.9187 38.2878C46.9312 37.9366 46.8116 37.5941 46.5849 37.3317C44.9588 35.3757 44.4697 33.7448 44.4697 32.5645V16.8753C44.4871 14.2511 42.0541 9 32.1931 9C23.4095 9 20.2119 14.3765 19.4944 17.9481C19.3579 18.6214 19.8618 19.218 20.5272 19.2794L25.7159 19.7633C26.349 19.8222 26.915 19.3741 27.1633 18.7725C27.8088 17.2107 29.3157 15.2316 32.1931 15.2316C35.0928 15.2316 36.1082 17.5231 36.2522 18.6701V22.2109C22.0416 22.2109 18.3673 28.591 18.3673 34.6716C18.3673 40.7548 22.6697 43.7938 27.9379 43.7938C31.4359 43.7938 34.6633 41.8045 36.4533 40.3016C36.7055 40.0813 37.0269 39.9634 37.3573 39.97C37.6878 39.9766 38.0045 40.1073 38.2482 40.3374L40.8724 42.954C41.1003 43.1815 41.404 43.3104 41.7212 43.3142C42.0384 43.318 42.345 43.1965 42.578 42.9745ZM33.8143 36.3742C36.9995 33.8754 36.2671 26.9038 36.2671 26.9038C36.2671 26.9038 30.279 26.4942 27.9403 30.1989C26.6643 32.2215 27.0764 34.966 28.6231 36.3742C29.9115 37.5468 32.0789 37.7362 33.8143 36.3742ZM56.0313 45.0099C55.6465 44.5593 53.8764 44.7155 52.1758 44.864C50.4876 45.0125 48.8689 45.1533 48.7398 44.6924C48.4792 43.7682 56.5974 41.6253 58.6034 43.3048C60.3487 44.7641 55.8427 53.3794 54.6014 52.6855C54.3531 52.5473 54.7255 51.5053 55.1773 50.22C55.8576 48.2973 56.7315 45.8266 56.0313 45.0099ZM31.6419 50.9318C20.4031 50.9318 12.3494 46.9173 8.18849 44.8435C6.44816 43.9756 5.39056 43.4482 5.06534 43.6991C3.9705 44.5439 16.7933 55 31.6419 55C44.6286 55 55.8625 47.7673 54.219 46.8072C53.6306 46.4641 52.3993 46.8917 50.4107 47.5855C46.8307 48.8298 40.7979 50.9318 31.6419 50.9318Z" fill="black"/>
</svg>
