<svg width="64" height="64" viewBox="0 0 64 64" fill="none" xmlns="http://www.w3.org/2000/svg">
<path fill-rule="evenodd" clip-rule="evenodd" d="M31.9831 45.9826C29.5937 47.3545 26.8856 48.0739 24.1304 48.0685C18.2305 48.0685 13.0618 44.8516 10.2659 40.0838C10.2659 40.0616 10.2438 40.0616 10.2438 40.0384C10.2438 40.0152 10.2216 40.0162 10.2216 39.9951L12.4847 38.8187L14.7467 37.6645C14.7739 37.69 14.7963 37.7199 14.8132 37.7531C15.792 39.3449 17.162 40.6597 18.7927 41.5722C20.4235 42.4848 22.2606 42.9646 24.1293 42.9662C25.3943 42.9662 26.6139 42.7436 27.7006 42.3891C25.1916 39.5131 23.8123 35.8238 23.8191 32.0072C23.8191 28.0591 25.2614 24.4223 27.6563 21.6254C26.5209 21.2385 25.3289 21.0434 24.1293 21.0482C20.2478 21.0482 16.6543 23.1341 14.6803 26.4839C14.6581 26.5061 14.6581 26.5272 14.6581 26.5494L10.1109 24.1976C10.133 24.1543 10.1552 24.109 10.1773 24.0868C12.95 19.2293 18.1851 15.9681 24.1304 15.9681C27.0138 15.9681 29.7211 16.7446 31.9831 18.0761C34.2462 16.7446 36.9524 15.9681 39.8358 15.9681C45.781 15.9681 51.0151 19.2304 53.7889 24.0868C53.811 24.109 53.8321 24.1543 53.8543 24.1976L49.306 26.5494C49.306 26.5272 49.306 26.5061 49.2849 26.4839C47.3109 23.133 43.7174 21.0482 39.8337 21.0482C38.5919 21.0482 37.3944 21.2476 36.3067 21.6254C38.7866 24.5155 40.1484 28.1989 40.145 32.0072C40.145 35.9785 38.6805 39.6174 36.2624 42.3891C37.3491 42.7436 38.5698 42.9662 39.8337 42.9662C43.7596 42.9662 47.2212 40.8803 49.1509 37.7531C49.173 37.7099 49.1962 37.6877 49.2163 37.6645L51.4794 38.8187L53.7424 39.9951C53.7424 40.0162 53.7213 40.0162 53.7213 40.0384C53.7213 40.0605 53.6992 40.0605 53.6992 40.0838C50.9054 44.8527 45.7346 48.0685 39.8348 48.0685C36.9524 48.0685 34.2462 47.292 31.9831 45.9826ZM31.9831 39.6174C30.1199 37.6434 28.9224 34.9582 28.9224 32.0072C28.9224 29.1016 30.0534 26.4618 31.9831 24.4878C33.9548 26.4928 35.0551 29.1952 35.0448 32.0072C35.0448 34.9582 33.8474 37.6434 31.9831 39.6174Z" fill="black"/>
<path fill-rule="evenodd" clip-rule="evenodd" d="M31.9995 1C49.0702 1 63 14.9301 63 31.9884C63 49.0689 49.0702 63 31.9995 63C14.9298 62.9789 1 49.0699 1 31.9884C1 14.9533 14.9298 1.02216 31.9995 1ZM31.9995 2.04241C48.4931 2.04241 61.9576 15.5072 61.9576 31.9884C61.9576 48.4928 48.4931 61.9586 31.9995 61.9586C15.4848 61.9365 2.04239 48.4918 2.04239 31.9884C2.04239 15.5072 15.4848 2.06456 31.9995 2.04241Z" fill="black"/>
</svg>
