<svg width="24" height="24" viewBox="0 0 24 24" fill="none" xmlns="http://www.w3.org/2000/svg">
<g clip-path="url(#clip0_34_3471)">
<path d="M11.1428 15.4286C13.5098 15.4286 15.4285 13.5098 15.4285 11.1429C15.4285 8.77596 13.5098 6.85718 11.1428 6.85718C8.7759 6.85718 6.85712 8.77596 6.85712 11.1429C6.85712 13.5098 8.7759 15.4286 11.1428 15.4286Z" fill="#FEFAF6"/>
<path d="M11.1428 15.4286C13.5098 15.4286 15.4285 13.5098 15.4285 11.1429C15.4285 8.77596 13.5098 6.85718 11.1428 6.85718C8.7759 6.85718 6.85712 8.77596 6.85712 11.1429C6.85712 13.5098 8.7759 15.4286 11.1428 15.4286Z" stroke="#120B03" stroke-width="1.1" stroke-linecap="round" stroke-linejoin="round"/>
<path d="M12 23.1429C18.1541 23.1429 23.1428 18.1541 23.1428 12C23.1428 5.84601 18.1541 0.857178 12 0.857178C5.84595 0.857178 0.857117 5.84601 0.857117 12C0.857117 18.1541 5.84595 23.1429 12 23.1429Z" stroke="#120B03" stroke-width="1.1" stroke-linecap="round" stroke-linejoin="round"/>
<path d="M17.1428 17.1429L14.1771 14.1772" stroke="#120B03" stroke-width="1.1" stroke-linecap="round" stroke-linejoin="round"/>
</g>
<defs>
<clipPath id="clip0_34_3471">
<rect width="24" height="24" fill="white"/>
</clipPath>
</defs>
</svg>
