<svg width="64" height="64" viewBox="0 0 64 64" fill="none" xmlns="http://www.w3.org/2000/svg">
<path d="M32 16.5113L37.775 9.45067C37.775 9.45067 47.68 9.66067 57.5407 14.2433C55.016 18.0607 50.0017 19.932 50.0017 19.932C49.661 16.5743 47.309 15.7553 39.8423 15.7553L32 60L24.111 15.746C16.691 15.746 14.339 16.572 13.996 19.9273C13.996 19.9273 8.98867 18.0723 6.46167 14.2573C16.32 9.67233 26.225 9.46 26.225 9.46L32 16.5113L31.9907 16.516H32V16.5113ZM32 7.41367C39.9683 7.34367 49.094 8.64567 58.432 12.7337C59.6803 10.475 60 9.47867 60 9.47867C49.7917 5.428 40.232 4.035 32 4C23.768 4.035 14.2083 5.42333 4 9.481C4 9.481 4.455 10.706 5.568 12.7383C14.906 8.641 24.0317 7.34833 32 7.40667V7.41367Z" fill="black"/>
</svg>
